<svg id="Layer_1" data-name="Layer 1" xmlns="http://www.w3.org/2000/svg" xmlns:xlink="http://www.w3.org/1999/xlink" width="180" height="1974.92" viewBox="0 0 180 1974.92">
  <defs>
    <style>
      .cls-1 {
        fill: none;
      }

      .cls-2 {
        clip-path: url(#clip-path);
      }

      .cls-3 {
        fill: #00bceb;
      }

      .cls-4 {
        fill: #19b1e0;
      }

      .cls-5 {
        fill: #fff;
      }
    </style>
    <clipPath id="clip-path">
      <rect class="cls-1" width="204" height="1973"/>
    </clipPath>
  </defs>
  <title>building</title>
  <g class="cls-2">
    <path class="cls-3" d="M0,579l111.05-1.27a12.87,12.87,0,0,1,13,12.86l.4,1192.58c0,1.09-.15,2.14-.4,188.83h54.26C178,1660.84,176,679.68,175.77,562.35A12.39,12.39,0,0,0,163.39,550H127.48c-.3-140.77-.56-261.08-.63-295.28a9.68,9.68,0,0,0-9.61-9.72H111V163.45a8.23,8.23,0,0,0-6.79-8.23,8.06,8.06,0,0,0-9.21,8V245H78V37.12A8.14,8.14,0,0,0,69.88,29h-.76A8.14,8.14,0,0,0,61,37.12V245H42.58L0,243ZM0,307H81.78A1.22,1.22,0,0,1,83,308.22v15.56A1.22,1.22,0,0,1,81.78,325H0c-.67,0,0-.55,0-1.22V308.22C0,307.55-.67,307,0,307Zm0,80H81.78A1.22,1.22,0,0,1,83,388.22v15.56A1.22,1.22,0,0,1,81.78,405H0c-.67,0,0-.55,0-1.22V388.22C0,387.55-.67,387,0,387Zm0,79H81.78A1.22,1.22,0,0,1,83,467.22v15.56A1.22,1.22,0,0,1,81.78,484H0c-.67,0,0-.55,0-1.22V467.22C0,466.55-.67,466,0,466Z"/>
    <path class="cls-4" d="M124.6,589.85A12.84,12.84,0,0,0,111.68,577L0,578.27V1973H124.6c.25-188.64.4-189.68.4-190.77Z"/>
    <path class="cls-5" d="M0,323.76V308.24c0-.68-.35-1.24,0-1.24H82.37c.35,0,.63.56.63,1.24v15.52c0,.68-.28,1.24-.63,1.24H0C-.35,325,0,324.44,0,323.76ZM0,405H82.37c.35,0,.63-.56.63-1.24V388.24c0-.68-.28-1.24-.63-1.24H0c-.35,0,0,.56,0,1.24v15.52C0,404.44-.35,405,0,405Zm0,79H82.37c.35,0,.63-.56.63-1.24V467.24c0-.68-.28-1.24-.63-1.24H0c-.35,0,0,.56,0,1.24v15.52C0,483.44-.35,484,0,484Z"/>
    <path class="cls-5" d="M91,662H60V610H91ZM18,610H0v52H18ZM61,737H92V685H61ZM0,737H17V685H0Zm61,74H92V759H61ZM0,811H17V759H0Zm61,75H92V834H61ZM0,886H17V834H0Zm61,75H92V909H61ZM0,961H17V909H0Zm61,75H92V984H61Zm-61,0H17V984H0Zm61,75H92v-52H61Zm-61,0H17v-52H0Zm91,24H60v52H91Zm-74,0H0v52H17Zm44,128H92v-52H61Zm-61,0H17v-52H0Zm61,74H92v-52H61Zm-61,0H17v-52H0Zm61,75H92v-52H61Zm-61,0H17v-52H0Zm61,75H92v-52H61Zm-61,0H17v-52H0Zm61,75H92v-52H61Zm-61-1H18v-52H0Zm61,76H92v-52H61Zm-61,0H17v-52H0Zm61,75H92v-52H61Zm-61,0H17v-52H0Zm61,75H92v-52H61Zm-61,0H17v-52H0Zm61,75H92v-52H61Zm-61,0H17v-52H0Z"/>
  </g>
</svg>
