<svg id="Layer_1" data-name="Layer 1" xmlns="http://www.w3.org/2000/svg" xmlns:xlink="http://www.w3.org/1999/xlink" width="616.53" height="169.29" viewBox="0 0 616.53 169.29">
  <defs>
    <style>
      .cls-1 {
        fill: none;
      }

      .cls-2 {
        fill: #e9e9e7;
      }

      .cls-3 {
        fill: #d2d2d2;
      }

      .cls-4 {
        fill: #f3f3f3;
      }

      .cls-5 {
        clip-path: url(#clip-path);
      }

      .cls-6 {
        fill: #00bceb;
      }

      .cls-7 {
        fill: #fff;
      }

      .cls-8 {
        fill: #005073;
      }

      .cls-9 {
        fill: #19b1e0;
      }

      .cls-10 {
        fill: url(#New_Gradient_Swatch_1);
      }
    </style>
    <clipPath id="clip-path">
      <rect id="SVGID" class="cls-1" width="616.53" height="169.28"/>
    </clipPath>
    <radialGradient id="New_Gradient_Swatch_1" data-name="New Gradient Swatch 1" cx="-8189.71" cy="-8326.1" r="106.98" gradientTransform="translate(5691.05 5387.49) scale(0.64)" gradientUnits="userSpaceOnUse">
      <stop offset="0" stop-color="#a4caeb"/>
      <stop offset="0.03" stop-color="#aacdec"/>
      <stop offset="0.19" stop-color="#c9dff3"/>
      <stop offset="0.37" stop-color="#e1edf8"/>
      <stop offset="0.55" stop-color="#f2f7fc"/>
      <stop offset="0.75" stop-color="#fcfdfe"/>
      <stop offset="1" stop-color="#fff"/>
    </radialGradient>
  </defs>
  <title>city-scene-small</title>
  <g>
    <path class="cls-2" d="M119.16,169.28H98.06V134.52s0-.14.35-.17a1.63,1.63,0,0,1,.7.08l20.22,0s-.17,8-.17,8.06v26.82Z"/>
    <polygon class="cls-3" points="98.24 169.28 81.14 169.28 81.14 128.74 98.24 128.9 98.24 169.28"/>
    <g>
      <rect class="cls-3" x="50.99" y="121.36" width="21.99" height="47.93"/>
      <g>
        <rect class="cls-4" x="55.13" y="128.46" width="1.76" height="7.33"/>
        <rect class="cls-4" x="52.75" y="128.46" width="1.76" height="7.33"/>
        <rect class="cls-4" x="59.91" y="128.46" width="1.76" height="7.33"/>
        <rect class="cls-4" x="57.52" y="128.46" width="1.76" height="7.33"/>
        <rect class="cls-4" x="64.68" y="128.46" width="1.76" height="7.33"/>
        <rect class="cls-4" x="62.3" y="128.46" width="1.76" height="7.33"/>
        <rect class="cls-4" x="69.46" y="128.46" width="1.76" height="7.33"/>
        <rect class="cls-4" x="67.07" y="128.46" width="1.76" height="7.33"/>
      </g>
      <g>
        <rect class="cls-4" x="55.13" y="139.46" width="1.76" height="7.33"/>
        <rect class="cls-4" x="52.75" y="139.46" width="1.76" height="7.33"/>
        <rect class="cls-4" x="59.91" y="139.46" width="1.76" height="7.33"/>
        <rect class="cls-4" x="57.52" y="139.46" width="1.76" height="7.33"/>
        <rect class="cls-4" x="64.68" y="139.46" width="1.76" height="7.33"/>
        <rect class="cls-4" x="62.3" y="139.46" width="1.76" height="7.33"/>
        <rect class="cls-4" x="69.46" y="139.46" width="1.76" height="7.33"/>
        <rect class="cls-4" x="67.07" y="139.46" width="1.76" height="7.33"/>
      </g>
      <g>
        <rect class="cls-4" x="55.13" y="150.47" width="1.76" height="7.33"/>
        <rect class="cls-4" x="52.75" y="150.47" width="1.76" height="7.33"/>
        <rect class="cls-4" x="59.91" y="150.47" width="1.76" height="7.33"/>
        <rect class="cls-4" x="57.52" y="150.47" width="1.76" height="7.33"/>
        <rect class="cls-4" x="64.68" y="150.47" width="1.76" height="7.33"/>
        <rect class="cls-4" x="62.3" y="150.47" width="1.76" height="7.33"/>
        <rect class="cls-4" x="69.46" y="150.47" width="1.76" height="7.33"/>
        <rect class="cls-4" x="67.07" y="150.47" width="1.76" height="7.33"/>
      </g>
    </g>
    <path class="cls-2" d="M124.9,169.29H113.76V120.94l5.18-10.6s.14-.39.39-.39.4.41.4.41l5.17,10.58Z"/>
    <path class="cls-2" d="M41.44,169.28H20.34V120.37s0-.19.35-.24a1.28,1.28,0,0,1,.7.11l20.22,0s-.17,11.22-.17,11.34v37.74Z"/>
    <path class="cls-3" d="M20.52,169.28H3.42V152.54a11.68,11.68,0,0,1,3.82-8.63l13.28-12.08Z"/>
    <path class="cls-2" d="M51.3,169.29H40.15V120.94l5.18-10.6s.14-.39.39-.39.41.41.41.41l5.17,10.58Z"/>
  </g>
  <g class="cls-5">
    <g>
      <g>
        <g>
          <rect class="cls-3" x="589.23" y="99.63" width="31.86" height="69.44"/>
          <g>
            <rect class="cls-4" x="595.23" y="110.25" width="2.55" height="10.63"/>
            <rect class="cls-4" x="591.77" y="110.25" width="2.55" height="10.63"/>
            <rect class="cls-4" x="602.15" y="110.25" width="2.55" height="10.63"/>
            <rect class="cls-4" x="598.69" y="110.25" width="2.55" height="10.63"/>
            <rect class="cls-4" x="609.07" y="110.25" width="2.55" height="10.63"/>
            <rect class="cls-4" x="605.61" y="110.25" width="2.55" height="10.63"/>
            <rect class="cls-4" x="615.99" y="110.25" width="2.55" height="10.63"/>
            <rect class="cls-4" x="612.53" y="110.25" width="2.55" height="10.63"/>
          </g>
          <g>
            <rect class="cls-4" x="595.23" y="126.19" width="2.55" height="10.63"/>
            <rect class="cls-4" x="591.77" y="126.19" width="2.55" height="10.63"/>
            <rect class="cls-4" x="602.15" y="126.19" width="2.55" height="10.63"/>
            <rect class="cls-4" x="598.69" y="126.19" width="2.55" height="10.63"/>
            <rect class="cls-4" x="609.07" y="126.19" width="2.55" height="10.63"/>
            <rect class="cls-4" x="605.61" y="126.19" width="2.55" height="10.63"/>
            <rect class="cls-4" x="615.99" y="126.19" width="2.55" height="10.63"/>
            <rect class="cls-4" x="612.53" y="126.19" width="2.55" height="10.63"/>
          </g>
          <g>
            <rect class="cls-4" x="595.23" y="142.13" width="2.55" height="10.63"/>
            <rect class="cls-4" x="591.77" y="142.13" width="2.55" height="10.63"/>
            <rect class="cls-4" x="602.15" y="142.13" width="2.55" height="10.63"/>
            <rect class="cls-4" x="598.69" y="142.13" width="2.55" height="10.63"/>
            <rect class="cls-4" x="609.07" y="142.13" width="2.55" height="10.63"/>
            <rect class="cls-4" x="605.61" y="142.13" width="2.55" height="10.63"/>
            <rect class="cls-4" x="615.99" y="142.13" width="2.55" height="10.63"/>
            <rect class="cls-4" x="612.53" y="142.13" width="2.55" height="10.63"/>
          </g>
        </g>
        <path class="cls-2" d="M509.29,169.25H478.71V110.74s0-.2.51-.25a2.37,2.37,0,0,1,1,.11l29.3,0s-.25,11.55-.25,11.68v47Z"/>
        <polygon class="cls-3" points="478.98 169.24 454.21 169.24 454.21 102.34 478.98 102.59 478.98 169.24"/>
        <g>
          <rect class="cls-3" x="410.51" y="91.65" width="31.86" height="77.59"/>
          <g>
            <rect class="cls-4" x="416.52" y="102.28" width="2.55" height="10.63"/>
            <rect class="cls-4" x="413.06" y="102.28" width="2.55" height="10.63"/>
            <rect class="cls-4" x="423.44" y="102.28" width="2.55" height="10.63"/>
            <rect class="cls-4" x="419.98" y="102.28" width="2.55" height="10.63"/>
            <rect class="cls-4" x="430.36" y="102.28" width="2.55" height="10.63"/>
            <rect class="cls-4" x="426.9" y="102.28" width="2.55" height="10.63"/>
            <rect class="cls-4" x="437.28" y="102.28" width="2.55" height="10.63"/>
            <rect class="cls-4" x="433.82" y="102.28" width="2.55" height="10.63"/>
          </g>
          <g>
            <rect class="cls-4" x="416.52" y="118.22" width="2.55" height="10.63"/>
            <rect class="cls-4" x="413.06" y="118.22" width="2.55" height="10.63"/>
            <rect class="cls-4" x="423.44" y="118.22" width="2.55" height="10.63"/>
            <rect class="cls-4" x="419.98" y="118.22" width="2.55" height="10.63"/>
            <rect class="cls-4" x="430.36" y="118.22" width="2.55" height="10.63"/>
            <rect class="cls-4" x="426.9" y="118.22" width="2.55" height="10.63"/>
            <rect class="cls-4" x="437.28" y="118.22" width="2.55" height="10.63"/>
            <rect class="cls-4" x="433.82" y="118.22" width="2.55" height="10.63"/>
          </g>
          <g>
            <rect class="cls-4" x="416.52" y="134.16" width="2.55" height="10.63"/>
            <rect class="cls-4" x="413.06" y="134.16" width="2.55" height="10.63"/>
            <rect class="cls-4" x="423.44" y="134.16" width="2.55" height="10.63"/>
            <rect class="cls-4" x="419.98" y="134.16" width="2.55" height="10.63"/>
            <rect class="cls-4" x="430.36" y="134.16" width="2.55" height="10.63"/>
            <rect class="cls-4" x="426.9" y="134.16" width="2.55" height="10.63"/>
            <rect class="cls-4" x="437.28" y="134.16" width="2.55" height="10.63"/>
            <rect class="cls-4" x="433.82" y="134.16" width="2.55" height="10.63"/>
          </g>
        </g>
        <path class="cls-2" d="M552.89,169.59H536.74V91.38L544.24,76s.21-.55.57-.55.58.59.58.59l7.5,15.33Z"/>
        <path class="cls-2" d="M367.37,169.25H336.79v-79s0-.28.51-.35a1.75,1.75,0,0,1,1,.16l29.31,0s-.25,16.24-.25,16.42v62.83Z"/>
        <polygon class="cls-3" points="337.05 169.24 312.28 169.24 312.28 78.43 337.05 78.78 337.05 169.24"/>
        <g>
          <rect class="cls-3" x="268.59" y="91.65" width="31.86" height="77.59"/>
          <g>
            <rect class="cls-4" x="274.6" y="102.28" width="2.55" height="10.63"/>
            <rect class="cls-4" x="271.14" y="102.28" width="2.55" height="10.63"/>
            <rect class="cls-4" x="281.52" y="102.28" width="2.55" height="10.63"/>
            <rect class="cls-4" x="278.06" y="102.28" width="2.55" height="10.63"/>
            <rect class="cls-4" x="288.43" y="102.28" width="2.55" height="10.63"/>
            <rect class="cls-4" x="284.97" y="102.28" width="2.55" height="10.63"/>
            <rect class="cls-4" x="295.35" y="102.28" width="2.55" height="10.63"/>
            <rect class="cls-4" x="291.89" y="102.28" width="2.55" height="10.63"/>
          </g>
          <g>
            <rect class="cls-4" x="274.6" y="118.22" width="2.55" height="10.63"/>
            <rect class="cls-4" x="271.14" y="118.22" width="2.55" height="10.63"/>
            <rect class="cls-4" x="281.52" y="118.22" width="2.55" height="10.63"/>
            <rect class="cls-4" x="278.06" y="118.22" width="2.55" height="10.63"/>
            <rect class="cls-4" x="288.43" y="118.22" width="2.55" height="10.63"/>
            <rect class="cls-4" x="284.97" y="118.22" width="2.55" height="10.63"/>
            <rect class="cls-4" x="295.35" y="118.22" width="2.55" height="10.63"/>
            <rect class="cls-4" x="291.89" y="118.22" width="2.55" height="10.63"/>
          </g>
          <g>
            <rect class="cls-4" x="274.6" y="134.16" width="2.55" height="10.63"/>
            <rect class="cls-4" x="271.14" y="134.16" width="2.55" height="10.63"/>
            <rect class="cls-4" x="281.52" y="134.16" width="2.55" height="10.63"/>
            <rect class="cls-4" x="278.06" y="134.16" width="2.55" height="10.63"/>
            <rect class="cls-4" x="288.43" y="134.16" width="2.55" height="10.63"/>
            <rect class="cls-4" x="284.97" y="134.16" width="2.55" height="10.63"/>
            <rect class="cls-4" x="295.35" y="134.16" width="2.55" height="10.63"/>
            <rect class="cls-4" x="291.89" y="134.16" width="2.55" height="10.63"/>
          </g>
        </g>
        <path class="cls-2" d="M411,169.59H394.81V91.38L402.32,76s.2-.55.57-.55.58.59.58.59L411,91.38Z"/>
      </g>
      <g>
        <path class="cls-6" d="M321.73,169.59l-30.36-.21-.21-65.45,3.3-2.94h8.26l10.78.16h8.05S321.73,169.3,321.73,169.59Z"/>
        <rect class="cls-7" x="298.05" y="109.49" width="19.32" height="1.38" rx="0.69"/>
        <rect class="cls-7" x="298.05" y="115.68" width="19.32" height="1.38" rx="0.69"/>
        <rect class="cls-7" x="298.05" y="121.87" width="19.32" height="1.38" rx="0.69"/>
        <rect class="cls-7" x="298.05" y="128.05" width="19.32" height="1.38" rx="0.69"/>
        <rect class="cls-7" x="298.05" y="134.24" width="19.32" height="1.38" rx="0.69"/>
        <rect class="cls-7" x="298.05" y="140.43" width="19.32" height="1.38" rx="0.69"/>
        <rect class="cls-7" x="298.05" y="146.62" width="19.32" height="1.38" rx="0.69"/>
        <rect class="cls-7" x="298.05" y="152.82" width="19.32" height="1.38" rx="0.69"/>
        <rect class="cls-7" x="298.05" y="159.01" width="19.32" height="1.38" rx="0.69"/>
        <polygon class="cls-8" points="291.07 103.91 294.46 100.99 294.47 169.39 291.28 169.35 291.07 103.91"/>
      </g>
      <path class="cls-2" d="M225.59,169.59H194.43V97.36s0-.28.52-.35a1.73,1.73,0,0,1,1,.16l29.86-.06s-.25,16.56-.25,16.74v55.74Z"/>
      <polygon class="cls-3" points="194.7 169.59 169.45 169.59 169.45 85.34 194.7 85.69 194.7 169.59"/>
      <g>
        <rect class="cls-3" x="124.92" y="98.82" width="32.47" height="70.77"/>
        <g>
          <rect class="cls-4" x="131.05" y="109.65" width="2.6" height="10.83"/>
          <rect class="cls-4" x="127.52" y="109.65" width="2.6" height="10.83"/>
          <rect class="cls-4" x="138.1" y="109.65" width="2.6" height="10.83"/>
          <rect class="cls-4" x="134.57" y="109.65" width="2.6" height="10.83"/>
          <rect class="cls-4" x="145.15" y="109.65" width="2.6" height="10.83"/>
          <rect class="cls-4" x="141.62" y="109.65" width="2.6" height="10.83"/>
          <rect class="cls-4" x="152.2" y="109.65" width="2.6" height="10.83"/>
          <rect class="cls-4" x="148.67" y="109.65" width="2.6" height="10.83"/>
        </g>
        <g>
          <rect class="cls-4" x="131.05" y="125.89" width="2.6" height="10.83"/>
          <rect class="cls-4" x="127.52" y="125.89" width="2.6" height="10.83"/>
          <rect class="cls-4" x="138.1" y="125.89" width="2.6" height="10.83"/>
          <rect class="cls-4" x="134.57" y="125.89" width="2.6" height="10.83"/>
          <rect class="cls-4" x="145.15" y="125.89" width="2.6" height="10.83"/>
          <rect class="cls-4" x="141.62" y="125.89" width="2.6" height="10.83"/>
          <rect class="cls-4" x="152.2" y="125.89" width="2.6" height="10.83"/>
          <rect class="cls-4" x="148.67" y="125.89" width="2.6" height="10.83"/>
        </g>
        <g>
          <rect class="cls-4" x="131.05" y="142.14" width="2.6" height="10.83"/>
          <rect class="cls-4" x="127.52" y="142.14" width="2.6" height="10.83"/>
          <rect class="cls-4" x="138.1" y="142.14" width="2.6" height="10.83"/>
          <rect class="cls-4" x="134.57" y="142.14" width="2.6" height="10.83"/>
          <rect class="cls-4" x="145.15" y="142.14" width="2.6" height="10.83"/>
          <rect class="cls-4" x="141.62" y="142.14" width="2.6" height="10.83"/>
          <rect class="cls-4" x="152.2" y="142.14" width="2.6" height="10.83"/>
          <rect class="cls-4" x="148.67" y="142.14" width="2.6" height="10.83"/>
        </g>
      </g>
      <path class="cls-2" d="M270,169.59H253.56V98.19l7.65-15.66s.21-.57.58-.57.59.6.59.6L270,98.19Z"/>
      <g>
        <polygon class="cls-9" points="178.72 169.59 145.72 169.59 145.67 93.58 149.88 90.91 178.67 90.72 178.72 169.59"/>
        <g>
          <rect class="cls-7" x="171.41" y="95.16" width="3.57" height="7.15"/>
          <rect class="cls-7" x="162.84" y="95.16" width="3.57" height="7.15"/>
          <rect class="cls-7" x="154.27" y="95.16" width="3.57" height="7.15"/>
          <rect class="cls-7" x="171.49" y="105.57" width="3.57" height="7.15"/>
          <rect class="cls-7" x="162.88" y="105.57" width="3.57" height="7.15"/>
          <rect class="cls-7" x="154.27" y="105.57" width="3.57" height="7.15"/>
          <rect class="cls-7" x="171.49" y="115.82" width="3.57" height="7.15"/>
          <rect class="cls-7" x="162.88" y="115.82" width="3.57" height="7.15"/>
          <rect class="cls-7" x="154.27" y="115.82" width="3.57" height="7.15"/>
          <rect class="cls-7" x="171.49" y="126.2" width="3.57" height="7.15"/>
          <rect class="cls-7" x="162.88" y="126.2" width="3.57" height="7.15"/>
          <rect class="cls-7" x="154.27" y="126.2" width="3.57" height="7.15"/>
          <rect class="cls-7" x="171.49" y="136.59" width="3.57" height="7.15"/>
          <rect class="cls-7" x="162.88" y="136.59" width="3.57" height="7.15"/>
          <rect class="cls-7" x="154.27" y="136.59" width="3.57" height="7.15"/>
          <rect class="cls-7" x="171.49" y="146.97" width="3.57" height="7.15"/>
          <rect class="cls-7" x="162.88" y="146.97" width="3.57" height="7.15"/>
          <rect class="cls-7" x="154.27" y="146.97" width="3.57" height="7.15"/>
          <rect class="cls-7" x="171.49" y="157.35" width="3.57" height="7.15"/>
          <rect class="cls-7" x="162.88" y="157.35" width="3.57" height="7.15"/>
          <rect class="cls-7" x="154.27" y="157.35" width="3.57" height="7.15"/>
        </g>
        <polygon class="cls-8" points="149.85 90.93 145.67 93.55 145.67 169.59 149.83 169.59 149.85 90.93"/>
      </g>
      <g>
        <path class="cls-6" d="M255.51,169.59l-40.82-.28-.28-88,4.43-3.95h11.1l14.5.21h10.82S255.51,169.2,255.51,169.59Z"/>
        <rect class="cls-7" x="223.68" y="88.79" width="25.97" height="1.85" rx="0.93"/>
        <rect class="cls-7" x="223.68" y="97.11" width="25.97" height="1.85" rx="0.93"/>
        <rect class="cls-7" x="223.68" y="105.43" width="25.97" height="1.85" rx="0.93"/>
        <rect class="cls-7" x="223.68" y="113.75" width="25.97" height="1.85" rx="0.93"/>
        <rect class="cls-7" x="223.68" y="122.07" width="25.97" height="1.85" rx="0.93"/>
        <rect class="cls-7" x="223.68" y="130.39" width="25.97" height="1.85" rx="0.93"/>
        <rect class="cls-7" x="223.68" y="138.71" width="25.97" height="1.85" rx="0.93"/>
        <rect class="cls-7" x="223.68" y="147.05" width="25.97" height="1.85" rx="0.93"/>
        <rect class="cls-7" x="223.68" y="155.37" width="25.97" height="1.85" rx="0.93"/>
        <polygon class="cls-8" points="214.29 81.29 218.85 77.38 218.85 169.32 214.57 169.27 214.29 81.29"/>
      </g>
      <g>
        <path class="cls-6" d="M326.38,169.59l-40.81-.28-.28-88,4.43-3.95h11.1l14.5.21h10.82S326.38,169.2,326.38,169.59Z"/>
        <rect class="cls-7" x="294.55" y="88.79" width="25.97" height="1.85" rx="0.93"/>
        <rect class="cls-7" x="294.55" y="97.11" width="25.97" height="1.85" rx="0.93"/>
        <rect class="cls-7" x="294.55" y="105.43" width="25.97" height="1.85" rx="0.93"/>
        <rect class="cls-7" x="294.55" y="113.75" width="25.97" height="1.85" rx="0.93"/>
        <rect class="cls-7" x="294.55" y="122.07" width="25.97" height="1.85" rx="0.93"/>
        <rect class="cls-7" x="294.55" y="130.39" width="25.97" height="1.85" rx="0.93"/>
        <rect class="cls-7" x="294.55" y="138.71" width="25.97" height="1.85" rx="0.93"/>
        <rect class="cls-7" x="294.55" y="147.05" width="25.97" height="1.85" rx="0.93"/>
        <rect class="cls-7" x="294.55" y="155.37" width="25.97" height="1.85" rx="0.93"/>
        <polygon class="cls-8" points="285.17 81.29 289.73 77.38 289.73 169.32 285.45 169.27 285.17 81.29"/>
      </g>
      <g>
        <polygon class="cls-6" points="198.15 76.78 195.17 76.78 196.16 52.98 196.16 52.98 197.16 52.98 198.15 76.78"/>
        <g>
          <polygon class="cls-6" points="206.84 169.59 182.94 169.5 183.1 74.46 186.68 71.42 206.88 71.42 206.84 169.59"/>
          <g>
            <rect class="cls-4" x="199.28" y="77.75" width="1.71" height="18.98"/>
            <rect class="cls-4" x="202.63" y="77.75" width="1.71" height="18.98"/>
            <rect class="cls-4" x="189.22" y="77.75" width="1.71" height="18.98"/>
            <rect class="cls-4" x="192.57" y="77.75" width="1.71" height="18.98"/>
            <rect class="cls-4" x="195.93" y="77.75" width="1.71" height="18.98"/>
          </g>
          <g>
            <rect class="cls-4" x="199.28" y="99.9" width="1.71" height="18.98"/>
            <rect class="cls-4" x="202.63" y="99.9" width="1.71" height="18.98"/>
            <rect class="cls-4" x="189.22" y="99.9" width="1.71" height="18.98"/>
            <rect class="cls-4" x="192.57" y="99.9" width="1.71" height="18.98"/>
            <rect class="cls-4" x="195.93" y="99.9" width="1.71" height="18.98"/>
          </g>
          <g>
            <rect class="cls-4" x="199.28" y="122.05" width="1.71" height="18.98"/>
            <rect class="cls-4" x="202.63" y="122.05" width="1.71" height="18.98"/>
            <rect class="cls-4" x="189.22" y="122.05" width="1.71" height="18.98"/>
            <rect class="cls-4" x="192.57" y="122.05" width="1.71" height="18.98"/>
            <rect class="cls-4" x="195.93" y="122.05" width="1.71" height="18.98"/>
          </g>
          <g>
            <rect class="cls-4" x="199.28" y="144.19" width="1.71" height="18.98"/>
            <rect class="cls-4" x="202.63" y="144.19" width="1.71" height="18.98"/>
            <rect class="cls-4" x="189.22" y="144.19" width="1.71" height="18.98"/>
            <rect class="cls-4" x="192.57" y="144.19" width="1.71" height="18.98"/>
            <rect class="cls-4" x="195.93" y="144.19" width="1.71" height="18.98"/>
          </g>
        </g>
        <path class="cls-6" d="M204.48,71.79a8.39,8.39,0,0,0-15.58.14Z"/>
        <polygon class="cls-8" points="183.04 74.42 186.67 71.42 186.66 169.52 182.91 169.52 183.04 74.42"/>
      </g>
      <g>
        <polygon class="cls-9" points="376.23 169.59 346.18 169.59 346.14 111.8 349.97 109.77 376.18 109.63 376.23 169.59"/>
        <g>
          <rect class="cls-7" x="369.57" y="113" width="3.25" height="5.44"/>
          <rect class="cls-7" x="361.76" y="113" width="3.25" height="5.44"/>
          <rect class="cls-7" x="353.96" y="113" width="3.25" height="5.44"/>
          <rect class="cls-7" x="369.64" y="120.91" width="3.25" height="5.44"/>
          <rect class="cls-7" x="361.8" y="120.91" width="3.25" height="5.44"/>
          <rect class="cls-7" x="353.96" y="120.91" width="3.25" height="5.44"/>
          <rect class="cls-7" x="369.64" y="128.71" width="3.25" height="5.44"/>
          <rect class="cls-7" x="361.8" y="128.71" width="3.25" height="5.44"/>
          <rect class="cls-7" x="353.96" y="128.71" width="3.25" height="5.44"/>
          <rect class="cls-7" x="369.64" y="136.6" width="3.25" height="5.44"/>
          <rect class="cls-7" x="361.8" y="136.6" width="3.25" height="5.44"/>
          <rect class="cls-7" x="353.96" y="136.6" width="3.25" height="5.44"/>
          <rect class="cls-7" x="369.64" y="144.5" width="3.25" height="5.44"/>
          <rect class="cls-7" x="361.8" y="144.5" width="3.25" height="5.44"/>
          <rect class="cls-7" x="353.96" y="144.5" width="3.25" height="5.44"/>
          <rect class="cls-7" x="369.64" y="152.39" width="3.25" height="5.44"/>
          <rect class="cls-7" x="361.8" y="152.39" width="3.25" height="5.44"/>
          <rect class="cls-7" x="353.96" y="152.39" width="3.25" height="5.44"/>
          <rect class="cls-7" x="369.64" y="160.28" width="3.25" height="5.44"/>
          <rect class="cls-7" x="361.8" y="160.28" width="3.25" height="5.44"/>
          <rect class="cls-7" x="353.96" y="160.28" width="3.25" height="5.44"/>
        </g>
        <polygon class="cls-8" points="349.94 109.79 346.13 111.77 346.14 169.59 349.92 169.59 349.94 109.79"/>
      </g>
      <g>
        <g>
          <polygon class="cls-9" points="506.16 169.59 476.05 169.59 476 50.48 479.84 48.45 506.11 48.31 506.16 169.59"/>
          <g>
            <rect class="cls-7" x="499.48" y="51.68" width="3.26" height="5.44"/>
            <rect class="cls-7" x="491.67" y="51.68" width="3.26" height="5.44"/>
            <rect class="cls-7" x="483.85" y="51.68" width="3.26" height="5.44"/>
            <rect class="cls-7" x="499.56" y="59.59" width="3.26" height="5.44"/>
            <rect class="cls-7" x="491.7" y="59.59" width="3.26" height="5.44"/>
            <rect class="cls-7" x="483.85" y="59.59" width="3.26" height="5.44"/>
            <rect class="cls-7" x="499.56" y="67.39" width="3.26" height="5.44"/>
            <rect class="cls-7" x="491.7" y="67.39" width="3.26" height="5.44"/>
            <rect class="cls-7" x="483.85" y="67.39" width="3.26" height="5.44"/>
            <rect class="cls-7" x="499.56" y="75.28" width="3.26" height="5.44"/>
            <rect class="cls-7" x="491.7" y="75.28" width="3.26" height="5.44"/>
            <rect class="cls-7" x="483.85" y="75.28" width="3.26" height="5.44"/>
            <rect class="cls-7" x="499.56" y="83.18" width="3.26" height="5.44"/>
            <rect class="cls-7" x="491.7" y="83.18" width="3.26" height="5.44"/>
            <rect class="cls-7" x="483.85" y="83.18" width="3.26" height="5.44"/>
            <rect class="cls-7" x="499.56" y="91.07" width="3.26" height="5.44"/>
            <rect class="cls-7" x="491.7" y="91.07" width="3.26" height="5.44"/>
            <rect class="cls-7" x="483.85" y="91.07" width="3.26" height="5.44"/>
            <rect class="cls-7" x="499.56" y="98.96" width="3.26" height="5.44"/>
            <rect class="cls-7" x="491.7" y="98.96" width="3.26" height="5.44"/>
            <rect class="cls-7" x="483.85" y="98.96" width="3.26" height="5.44"/>
          </g>
          <g>
            <rect class="cls-7" x="499.48" y="106.97" width="3.26" height="5.44"/>
            <rect class="cls-7" x="491.67" y="106.97" width="3.26" height="5.44"/>
            <rect class="cls-7" x="483.85" y="106.97" width="3.26" height="5.44"/>
            <rect class="cls-7" x="499.56" y="114.88" width="3.26" height="5.44"/>
            <rect class="cls-7" x="491.7" y="114.88" width="3.26" height="5.44"/>
            <rect class="cls-7" x="483.85" y="114.88" width="3.26" height="5.44"/>
            <rect class="cls-7" x="499.56" y="122.68" width="3.26" height="5.44"/>
            <rect class="cls-7" x="491.7" y="122.68" width="3.26" height="5.44"/>
            <rect class="cls-7" x="483.85" y="122.68" width="3.26" height="5.44"/>
            <rect class="cls-7" x="499.56" y="130.57" width="3.26" height="5.44"/>
            <rect class="cls-7" x="491.7" y="130.57" width="3.26" height="5.44"/>
            <rect class="cls-7" x="483.85" y="130.57" width="3.26" height="5.44"/>
            <rect class="cls-7" x="499.56" y="138.47" width="3.26" height="5.44"/>
            <rect class="cls-7" x="491.7" y="138.47" width="3.26" height="5.44"/>
            <rect class="cls-7" x="483.85" y="138.47" width="3.26" height="5.44"/>
            <rect class="cls-7" x="499.56" y="146.36" width="3.26" height="5.44"/>
            <rect class="cls-7" x="491.7" y="146.36" width="3.26" height="5.44"/>
            <rect class="cls-7" x="483.85" y="146.36" width="3.26" height="5.44"/>
            <rect class="cls-7" x="499.56" y="154.25" width="3.26" height="5.44"/>
            <rect class="cls-7" x="491.7" y="154.25" width="3.26" height="5.44"/>
            <rect class="cls-7" x="483.85" y="154.25" width="3.26" height="5.44"/>
          </g>
        </g>
        <polygon class="cls-8" points="479.82 48.47 476 50.45 476 169.59 479.8 169.59 479.82 48.47"/>
      </g>
      <g>
        <path class="cls-6" d="M564.64,169.59l-46-.32-.32-148.74,5-4.45h12.5l16.33.24h12.19S564.64,169.15,564.64,169.59Z"/>
        <rect class="cls-7" x="528.79" y="78.6" width="29.24" height="2.09" rx="1.04"/>
        <rect class="cls-7" x="528.79" y="87.97" width="29.24" height="2.09" rx="1.04"/>
        <rect class="cls-7" x="528.79" y="97.34" width="29.24" height="2.09" rx="1.04"/>
        <rect class="cls-7" x="528.79" y="106.71" width="29.24" height="2.09" rx="1.04"/>
        <rect class="cls-7" x="528.79" y="116.08" width="29.24" height="2.09" rx="1.04"/>
        <rect class="cls-7" x="528.79" y="125.45" width="29.24" height="2.09" rx="1.04"/>
        <rect class="cls-7" x="528.79" y="134.82" width="29.24" height="2.09" rx="1.04"/>
        <rect class="cls-7" x="528.79" y="144.21" width="29.24" height="2.09" rx="1.04"/>
        <rect class="cls-7" x="528.79" y="153.58" width="29.24" height="2.09" rx="1.04"/>
        <rect class="cls-7" x="528.79" y="22.36" width="29.24" height="2.09" rx="1.04"/>
        <rect class="cls-7" x="528.79" y="31.73" width="29.24" height="2.09" rx="1.04"/>
        <rect class="cls-7" x="528.79" y="41.1" width="29.24" height="2.09" rx="1.04"/>
        <rect class="cls-7" x="528.79" y="50.47" width="29.24" height="2.09" rx="1.04"/>
        <rect class="cls-7" x="528.79" y="59.86" width="29.24" height="2.09" rx="1.04"/>
        <rect class="cls-7" x="528.79" y="69.23" width="29.24" height="2.09" rx="1.04"/>
        <polygon class="cls-8" points="518.22 20.49 523.36 16.09 523.37 169.28 518.55 169.23 518.22 20.49"/>
      </g>
      <g>
        <polygon class="cls-6" points="445.91 70.03 442.72 70.03 443.78 44.49 443.78 44.49 444.85 44.49 445.91 70.03"/>
        <g>
          <polygon class="cls-6" points="455.24 169.59 429.6 169.5 429.77 67.53 433.61 64.28 455.28 64.28 455.24 169.59"/>
          <g>
            <rect class="cls-4" x="447.12" y="71.07" width="1.84" height="20.36"/>
            <rect class="cls-4" x="450.72" y="71.07" width="1.84" height="20.36"/>
            <rect class="cls-4" x="436.34" y="71.07" width="1.84" height="20.36"/>
            <rect class="cls-4" x="439.93" y="71.07" width="1.84" height="20.36"/>
            <rect class="cls-4" x="443.53" y="71.07" width="1.84" height="20.36"/>
          </g>
          <g>
            <rect class="cls-4" x="447.12" y="94.83" width="1.84" height="20.36"/>
            <rect class="cls-4" x="450.72" y="94.83" width="1.84" height="20.36"/>
            <rect class="cls-4" x="436.34" y="94.83" width="1.84" height="20.36"/>
            <rect class="cls-4" x="439.93" y="94.83" width="1.84" height="20.36"/>
            <rect class="cls-4" x="443.53" y="94.83" width="1.84" height="20.36"/>
          </g>
          <g>
            <rect class="cls-4" x="447.12" y="118.59" width="1.84" height="20.36"/>
            <rect class="cls-4" x="450.72" y="118.59" width="1.84" height="20.36"/>
            <rect class="cls-4" x="436.34" y="118.59" width="1.84" height="20.36"/>
            <rect class="cls-4" x="439.93" y="118.59" width="1.84" height="20.36"/>
            <rect class="cls-4" x="443.53" y="118.59" width="1.84" height="20.36"/>
          </g>
          <g>
            <rect class="cls-4" x="447.12" y="142.34" width="1.84" height="20.36"/>
            <rect class="cls-4" x="450.72" y="142.34" width="1.84" height="20.36"/>
            <rect class="cls-4" x="436.34" y="142.34" width="1.84" height="20.36"/>
            <rect class="cls-4" x="439.93" y="142.34" width="1.84" height="20.36"/>
            <rect class="cls-4" x="443.53" y="142.34" width="1.84" height="20.36"/>
          </g>
        </g>
        <path class="cls-6" d="M452.7,64.67a9,9,0,0,0-16.71.16Z"/>
        <polygon class="cls-8" points="429.7 67.49 433.6 64.27 433.58 169.51 429.57 169.51 429.7 67.49"/>
      </g>
      <g>
        <g>
          <path class="cls-6" d="M621.39,105.57l-33.57-.28-.23-88.64,3.64-4h9.13l11.93.21h8.91S621.39,105.18,621.39,105.57Z"/>
          <rect class="cls-7" x="595.21" y="19.37" width="21.36" height="1.87" rx="0.93"/>
          <rect class="cls-7" x="595.21" y="27.75" width="21.36" height="1.87" rx="0.93"/>
          <rect class="cls-7" x="595.21" y="36.13" width="21.36" height="1.87" rx="0.93"/>
          <polygon class="cls-8" points="587.48 16.62 591.24 12.68 591.24 105.3 587.72 105.26 587.48 16.62"/>
        </g>
        <path class="cls-6" d="M626.54,169.21H581.4L581.09,50l4.9-5.35h12.28l16,.29h12S626.54,168.68,626.54,169.21Z"/>
        <polygon class="cls-8" points="580.95 50 586 44.7 586 169.22 581.27 169.16 580.95 50"/>
        <g>
          <g>
            <polygon class="cls-9" points="620.88 169.27 590.76 169.27 590.72 50.01 594.56 47.98 620.83 47.84 620.88 169.27"/>
            <g>
              <rect class="cls-7" x="614.2" y="51.21" width="3.26" height="5.44"/>
              <rect class="cls-7" x="606.39" y="51.21" width="3.26" height="5.44"/>
              <rect class="cls-7" x="598.57" y="51.21" width="3.26" height="5.44"/>
              <rect class="cls-7" x="614.28" y="59.12" width="3.26" height="5.44"/>
              <rect class="cls-7" x="606.42" y="59.12" width="3.26" height="5.44"/>
              <rect class="cls-7" x="598.57" y="59.12" width="3.26" height="5.44"/>
              <rect class="cls-7" x="614.28" y="66.92" width="3.26" height="5.44"/>
              <rect class="cls-7" x="606.42" y="66.92" width="3.26" height="5.44"/>
              <rect class="cls-7" x="598.57" y="66.92" width="3.26" height="5.44"/>
              <rect class="cls-7" x="614.28" y="74.81" width="3.26" height="5.44"/>
              <rect class="cls-7" x="606.42" y="74.81" width="3.26" height="5.44"/>
              <rect class="cls-7" x="598.57" y="74.81" width="3.26" height="5.44"/>
              <rect class="cls-7" x="614.28" y="82.71" width="3.26" height="5.44"/>
              <rect class="cls-7" x="606.42" y="82.71" width="3.26" height="5.44"/>
              <rect class="cls-7" x="598.57" y="82.71" width="3.26" height="5.44"/>
              <rect class="cls-7" x="614.28" y="90.6" width="3.26" height="5.44"/>
              <rect class="cls-7" x="606.42" y="90.6" width="3.26" height="5.44"/>
              <rect class="cls-7" x="598.57" y="90.6" width="3.26" height="5.44"/>
              <rect class="cls-7" x="614.28" y="98.49" width="3.26" height="5.44"/>
              <rect class="cls-7" x="606.42" y="98.49" width="3.26" height="5.44"/>
              <rect class="cls-7" x="598.57" y="98.49" width="3.26" height="5.44"/>
            </g>
            <g>
              <rect class="cls-7" x="614.2" y="106.5" width="3.26" height="5.44"/>
              <rect class="cls-7" x="606.39" y="106.5" width="3.26" height="5.44"/>
              <rect class="cls-7" x="598.57" y="106.5" width="3.26" height="5.44"/>
              <rect class="cls-7" x="614.28" y="114.41" width="3.26" height="5.44"/>
              <rect class="cls-7" x="606.42" y="114.41" width="3.26" height="5.44"/>
              <rect class="cls-7" x="598.57" y="114.41" width="3.26" height="5.44"/>
              <rect class="cls-7" x="614.28" y="122.21" width="3.26" height="5.44"/>
              <rect class="cls-7" x="606.42" y="122.21" width="3.26" height="5.44"/>
              <rect class="cls-7" x="598.57" y="122.21" width="3.26" height="5.44"/>
              <rect class="cls-7" x="614.28" y="130.1" width="3.26" height="5.44"/>
              <rect class="cls-7" x="606.42" y="130.1" width="3.26" height="5.44"/>
              <rect class="cls-7" x="598.57" y="130.1" width="3.26" height="5.44"/>
              <rect class="cls-7" x="614.28" y="138" width="3.26" height="5.44"/>
              <rect class="cls-7" x="606.42" y="138" width="3.26" height="5.44"/>
              <rect class="cls-7" x="598.57" y="138" width="3.26" height="5.44"/>
              <rect class="cls-7" x="614.28" y="145.89" width="3.26" height="5.44"/>
              <rect class="cls-7" x="606.42" y="145.89" width="3.26" height="5.44"/>
              <rect class="cls-7" x="598.57" y="145.89" width="3.26" height="5.44"/>
              <rect class="cls-7" x="614.28" y="153.78" width="3.26" height="5.44"/>
              <rect class="cls-7" x="606.42" y="153.78" width="3.26" height="5.44"/>
              <rect class="cls-7" x="598.57" y="153.78" width="3.26" height="5.44"/>
            </g>
          </g>
          <polygon class="cls-8" points="594.54 48 590.72 49.98 590.72 169.11 594.52 169.11 594.54 48"/>
        </g>
      </g>
    </g>
  </g>
  <g>
    <path class="cls-6" d="M437,47.2a6.85,6.85,0,0,0,.43-2.4h0A6.9,6.9,0,0,0,431.15,38a7,7,0,0,0,.35-2.17h0a6.89,6.89,0,0,0-6.88-6.87h-7.86a6.89,6.89,0,0,0-6.87,6.87h0a6.85,6.85,0,0,0,.34,2.14H398.74a6.91,6.91,0,0,0-6.88,6.88h0a6.86,6.86,0,0,0,.35,2.14h-7.54a6.91,6.91,0,0,0-6.88,6.88h0a6.9,6.9,0,0,0,6.88,6.87H435.1A6.9,6.9,0,0,0,442,53.82h0A6.91,6.91,0,0,0,437,47.2Z"/>
    <path class="cls-10" d="M452,47.61a5,5,0,0,0,.31-1.72h0A5,5,0,0,0,447.79,41a4.71,4.71,0,0,0,.26-1.55h0a4.94,4.94,0,0,0-4.93-4.93h-5.64a4.94,4.94,0,0,0-4.93,4.93h0A4.86,4.86,0,0,0,432.8,41h-8.23a4.94,4.94,0,0,0-4.93,4.93h0a4.85,4.85,0,0,0,.24,1.53h-5.4a5,5,0,0,0-4.93,4.93h0a5,5,0,0,0,4.93,4.93h36.15a5,5,0,0,0,4.93-4.93h0A4.94,4.94,0,0,0,452,47.61Z"/>
  </g>
</svg>
