<svg id="clouds" xmlns="http://www.w3.org/2000/svg" xmlns:xlink="http://www.w3.org/1999/xlink" width="429.75" height="598" viewBox="0 0 429.75 598">
  <defs>
    <style>
      .cls-1 {
        fill: #2ba9df;
      }

      .cls-2 {
        fill: url(#radial-gradient);
      }
    </style>
    <radialGradient id="radial-gradient" cx="-1460.88" cy="394.53" r="224.97" gradientTransform="matrix(-1, 0, 0, 1, -1022.17, 0)" gradientUnits="userSpaceOnUse">
      <stop offset="0" stop-color="#a4caeb"/>
      <stop offset="0.03" stop-color="#acceed"/>
      <stop offset="0.2" stop-color="#cae0f3"/>
      <stop offset="0.37" stop-color="#e1eef8"/>
      <stop offset="0.55" stop-color="#f2f7fc"/>
      <stop offset="0.75" stop-color="#fcfdfe"/>
      <stop offset="1" stop-color="#fff"/>
    </radialGradient>
  </defs>
  <title>top-clouds</title>
  <path class="cls-1" d="M448.57,127a22.7,22.7,0,0,0-15.07-5.58c-12,0-21.7,8.9-21.7,19.89a18.84,18.84,0,0,0,5.2,12.9c-11.11,3.61-19.07,13.32-19.07,24.73,0,.84.05,1.67.13,2.48a33.9,33.9,0,0,0-18.12-5.17c-17.64,0-31.94,13.11-31.94,29.27,0,.14,0,.28,0,.42a30.49,30.49,0,0,0-6.75-.76c-15.54,0-28.13,11.55-28.13,25.79a24.55,24.55,0,0,0,7.66,17.67c-14.88,6-25.29,19.6-25.29,35.44,0,21.37,18.91,38.69,42.22,38.69a43.56,43.56,0,0,0,33.67-15.34,27.72,27.72,0,0,0,17.73,6.26,28,28,0,0,0,14.39-3.91A22.84,22.84,0,0,0,411.15,325c-9.49,3.67-16.15,12.28-16.15,22.32a22.37,22.37,0,0,0,.79,5.92,37,37,0,0,0-20.22-5.92c-19.28,0-34.91,14.32-34.91,32a29.56,29.56,0,0,0,2.68,12.28,30.28,30.28,0,0,0-9.79-1.63H298.68a30.6,30.6,0,0,0-30.51,30.51,30.21,30.21,0,0,0,1.54,9.5h-51a30.58,30.58,0,0,0-30.5,30.5,30.21,30.21,0,0,0,1.54,9.5H156.32a30.51,30.51,0,0,0,0,61H353.84A44.78,44.78,0,0,0,426,580.65a28.78,28.78,0,0,0,20.47,8.52c3.41,0,193.3-1.69,193.3-1.69V117.63s-99,.41-154.16.41C466.8,118,452.83,122.75,448.57,127Z"/>
  <path class="cls-2" d="M455.7,509.82a25.87,25.87,0,0,0,1.69-9.17,26.33,26.33,0,0,0-23.86-26.13,26,26,0,0,0,1.37-8.3h0A26.33,26.33,0,0,0,408.65,440h-30a26.33,26.33,0,0,0-26.25,26.26h0a25.67,25.67,0,0,0,1.33,8.17H309.82a26.33,26.33,0,0,0-26.25,26.26,26,26,0,0,0,1.32,8.17H256.11a26.34,26.34,0,0,0-26.26,26.26h0a26.34,26.34,0,0,0,26.26,26.26H448.65a26.33,26.33,0,0,0,26.25-26.26h0A26.33,26.33,0,0,0,455.7,509.82Z"/>
</svg>
